<?xml version="1.0" encoding="iso-8859-1"?>
<!-- Generator: Adobe Illustrator 19.0.0, SVG Export Plug-In . SVG Version: 6.00 Build 0)  -->
<svg version="1.1" id="Layer_1" xmlns="http://www.w3.org/2000/svg" xmlns:xlink="http://www.w3.org/1999/xlink" x="0px" y="0px"
	 viewBox="0 0 512 512" style="enable-background:new 0 0 512 512;" xml:space="preserve">
<g>
	<g>
		<g>
			<path d="M392.535,0c-53.589,0-97.604,41.387-101.965,93.867H260.32L47.593,218.573l50.927,12.732l191.616-116.634v19.977
				L121.79,237.124l45.005,11.247l123.341-74.001v19.9l-99.925,59.955l44.868,11.221l55.057-31.462v19.652l-31.13,17.792
				l31.13,7.782v25.933L17.069,467.686v35.029l273.067-157.773v19.712L35.117,512h70.195l184.823-107.315v4.915
				c0,4.821,0.452,9.54,1.101,14.182L139.309,512h253.227c56.465,0,102.4-45.935,102.4-102.4V102.4
				C494.936,45.935,449.001,0,392.535,0z M392.535,494.933c-47.053,0-85.333-38.281-85.333-85.333s38.281-85.333,85.333-85.333
				s85.333,38.281,85.333,85.333S439.588,494.933,392.535,494.933z M477.869,353.118c-18.355-27.64-49.732-45.918-85.333-45.918
				s-66.978,18.278-85.333,45.918V102.4c0-47.053,38.281-85.333,85.333-85.333s85.333,38.281,85.333,85.333V353.118z"/>
			<path d="M392.535,349.867c-32.93,0-59.733,26.803-59.733,59.733c0,32.93,26.803,59.733,59.733,59.733
				c32.93,0,59.733-26.803,59.733-59.733C452.269,376.67,425.466,349.867,392.535,349.867z M392.535,452.267
				c-23.526,0-42.667-19.14-42.667-42.667c0-23.526,19.14-42.667,42.667-42.667c23.526,0,42.667,19.14,42.667,42.667
				C435.202,433.126,416.062,452.267,392.535,452.267z"/>
			<polygon points="76.751,412.3 17.069,389.917 17.069,447.824 			"/>
			<polygon points="276.516,293.387 26.558,230.898 17.069,236.461 17.069,260.875 226.963,322.887 			"/>
			<polygon points="146.293,370.9 17.065,330.289 17.065,371.685 95.537,401.108 			"/>
			<polygon points="170.188,93.867 17.065,185.737 17.065,216.687 226.584,93.867 			"/>
			<polygon points="17.069,93.867 17.069,165.837 137.013,93.867 			"/>
			<polygon points="206.982,334.776 17.072,278.67 17.072,312.393 164.69,358.789 164.247,360.214 			"/>
		</g>
	</g>
</g>
<g>
</g>
<g>
</g>
<g>
</g>
<g>
</g>
<g>
</g>
<g>
</g>
<g>
</g>
<g>
</g>
<g>
</g>
<g>
</g>
<g>
</g>
<g>
</g>
<g>
</g>
<g>
</g>
<g>
</g>
</svg>
