<?xml version="1.0" encoding="iso-8859-1"?>
<!-- Generator: Adobe Illustrator 19.0.0, SVG Export Plug-In . SVG Version: 6.00 Build 0)  -->
<svg version="1.1" id="Layer_1" xmlns="http://www.w3.org/2000/svg" xmlns:xlink="http://www.w3.org/1999/xlink" x="0px" y="0px"
	 viewBox="0 0 512 512" style="enable-background:new 0 0 512 512;" xml:space="preserve">
<path style="fill:#A9CF54;" d="M250.887,366.529c0,0-16.458-75.389-130.072-67.425C120.814,299.104,148.155,430.77,250.887,366.529z
	"/>
<path style="fill:#92B83D;" d="M133.066,298.567c-3.958,0.074-8.029,0.241-12.251,0.537c0,0,27.342,131.665,130.072,67.425
	c0,0-1.32-6.033-5.778-14.504C177.007,386.723,145.222,330.984,133.066,298.567z"/>
<path style="fill:#A9CF54;" d="M254.329,348.867c0,0,16.458-75.389,130.072-67.425C384.402,281.442,357.06,413.108,254.329,348.867z
	"/>
<path style="fill:#92B83D;" d="M281.486,335.908c0,0,6.063-27.734,36.181-47.782c-53.891,17.536-63.339,60.742-63.339,60.742
	c41.41,25.895,70.568,19.954,90.627,3.641C327.98,355.752,307.072,351.907,281.486,335.908z"/>
<g>
	<path style="fill:#7C9E2F;" d="M252.306,432.143c-4.341,0-7.947-3.423-8.133-7.801c-0.063-1.473-1.442-36.644,5.964-85.126
		c6.855-44.866,22.897-109.86,60.401-164.696c2.54-3.714,7.611-4.663,11.325-2.125c3.714,2.54,4.665,7.61,2.125,11.325
		c-35.696,52.193-51.074,114.506-57.687,157.589c-7.214,46.995-5.862,81.997-5.848,82.345c0.188,4.495-3.303,8.291-7.798,8.48
		C252.537,432.141,252.421,432.143,252.306,432.143z"/>
	<path style="fill:#7C9E2F;" d="M252.32,404.456c-0.185,0-0.37-0.006-0.557-0.018c-4.49-0.303-7.883-4.188-7.581-8.678
		c6.241-92.562-47.902-164.956-48.45-165.677c-2.723-3.583-2.026-8.694,1.555-11.417c3.584-2.724,8.694-2.025,11.417,1.555
		c0.603,0.792,14.903,19.761,28.478,51.008c12.529,28.843,26.736,74.051,23.259,125.628
		C260.15,401.16,256.57,404.456,252.32,404.456z"/>
</g>
<path style="fill:#E86F22;" d="M308.002,512H196.621c-11.541,0-20.897-9.356-20.897-20.897V428.34c0-2.4,1.946-4.345,4.345-4.345
	h144.484c2.4,0,4.345,1.946,4.345,4.345v62.763C328.899,502.644,319.543,512,308.002,512z"/>
<g>
	<path style="fill:#C9571E;" d="M235.166,512h-38.542c-11.543,0-20.9-9.357-20.9-20.9v-62.755c0-2.4,1.946-4.346,4.345-4.346h34.196
		V491.1C214.266,502.647,223.629,512,235.166,512z"/>
	<path style="fill:#C9571E;" d="M328.899,457.142H175.724V428.34c0-2.4,1.946-4.345,4.345-4.345h144.484
		c2.4,0,4.345,1.946,4.345,4.345v28.802H328.899z"/>
</g>
<path style="fill:#A14718;" d="M214.266,423.999v33.143h-38.542v-28.797c0-2.4,1.946-4.346,4.345-4.346H214.266z"/>
<path style="fill:#EDBF31;" d="M158.152,89.706c0,0,0.892,40.9-2.387,69.524c-33.843-7.393-60.824-26.101-60.824-26.101v-0.024
	L94.453,70.87c-0.023-2.983,2.977-5.045,5.753-3.953L158.152,89.706z"/>
<path style="fill:#EDD149;" d="M185.113,235.088c-27.509,10.742-81.483,12.033-136.635-97.652c-1.441-2.867,0.739-6.233,3.944-6.097
	l35.646,1.5c0,0,0.024,0,0.068,0.009c0.049,0,0.117,0.009,0.213,0.009c2.74,0.228,25.768,2.215,59.61,9.608
	C143.344,182.76,145.908,231.938,185.113,235.088z"/>
<path style="fill:#FFE666;" d="M177.581,48.158c118.064,129.874,26.36,175.913,26.36,175.913s-6.945,6.39-18.819,11.022
	l-0.009-0.005c-67.038-5.39-26.96-145.383-26.96-145.383l12.294-39.942C171.404,46.65,175.391,45.749,177.581,48.158z"/>
<g>
	<path style="fill:#EDBF31;" d="M53.677,131.395l-1.259-0.053c-3.205-0.135-5.386,3.227-3.946,6.092
		c78.944,157.007,155.472,86.634,155.472,86.634s48.967-24.587,29.26-88.508C234.36,208.403,129.053,264.423,53.677,131.395z"/>
	<path style="fill:#EDBF31;" d="M417.841,78.458c0,0-33.347,17.203-60.418,27.067c-8.517-33.578-6.683-64.196-6.683-64.196
		l0.022-0.01l55.452-28.259c2.658-1.355,5.844,0.408,6.108,3.379L417.841,78.458z"/>
</g>
<path style="fill:#EDD149;" d="M299.848,167.567c-21.906-19.806-47.191-67.509,26.269-165.876c1.919-2.57,5.906-2.125,7.218,0.804
	l14.593,32.556c0,0,0.01,0.022,0.022,0.065c0.022,0.044,0.044,0.109,0.087,0.195c1.021,2.553,9.538,24.04,18.055,57.618
	C327.983,106.81,285.139,131.089,299.848,167.567z"/>
<path style="fill:#FFE666;" d="M463.692,77.263c-63.394,163.669-145.572,102.22-145.572,102.22s-8.821-3.356-18.272-11.906v-0.01
	C274.7,105.192,417.842,78.458,417.842,78.458l41.225-6.859C462.279,71.065,464.868,74.227,463.692,77.263z"/>
<path style="fill:#EDBF31;" d="M333.845,3.64l-0.515-1.149c-1.312-2.927-5.294-3.376-7.214-0.806
	c-105.153,140.805-7.991,177.801-7.991,177.801s43.884,32.81,92.252-13.393C345.733,199.689,248.546,130.534,333.845,3.64z"/>
<g>
</g>
<g>
</g>
<g>
</g>
<g>
</g>
<g>
</g>
<g>
</g>
<g>
</g>
<g>
</g>
<g>
</g>
<g>
</g>
<g>
</g>
<g>
</g>
<g>
</g>
<g>
</g>
<g>
</g>
</svg>
